<svg width="28" height="28" viewBox="0 0 38 28" fill="none" xmlns="http://www.w3.org/2000/svg">
<path d="M27.8822 12.9602C27.8742 12.6103 27.7289 12.2776 27.4778 12.0339C27.2266 11.7902 26.8897 11.655 26.5398 11.6575C26.1898 11.66 25.8549 11.7999 25.6072 12.0472C25.3595 12.2944 25.219 12.6291 25.2159 12.979L25.2895 23.0313L12.4013 10.1431C12.1512 9.89302 11.8121 9.75255 11.4584 9.75255C11.1048 9.75255 10.7657 9.89302 10.5156 10.1431C10.2656 10.3931 10.1251 10.7323 10.1251 11.0859C10.1251 11.4395 10.2656 11.7786 10.5156 12.0287L23.3982 24.9112L13.3582 24.8367C13.0083 24.8398 12.6736 24.9804 12.4263 25.228C12.1791 25.4757 12.0391 25.8107 12.0366 26.1606C12.0342 26.5105 12.1694 26.8474 12.4131 27.0986C12.6568 27.3497 12.9895 27.495 13.3394 27.503L26.3001 27.6001C26.521 27.6017 26.7399 27.5593 26.9442 27.4755C27.1485 27.3917 27.3341 27.2681 27.4902 27.112C27.6464 26.9559 27.7699 26.7703 27.8537 26.566C27.9375 26.3617 27.9799 26.1427 27.9783 25.9219L27.8822 12.9602Z" fill="white"/>
</svg>
