<svg width="32" height="32" viewBox="0 0 32 32" fill="none" xmlns="http://www.w3.org/2000/svg">
<path d="M22.0747 17.2081L21.468 17.8121C21.468 17.8121 20.024 19.2467 16.084 15.3294C12.144 11.4121 13.588 9.97739 13.588 9.97739L13.9694 9.59605C14.912 8.66005 15.0014 7.15605 14.1787 6.05739L12.4987 3.81339C11.48 2.45339 9.51336 2.27339 8.34669 3.43339L6.25336 5.51339C5.67602 6.08939 5.28936 6.83339 5.33602 7.66005C5.45602 9.77605 6.41336 14.3267 11.752 19.6361C17.4147 25.2654 22.728 25.4894 24.9 25.2867C25.588 25.2227 26.1854 24.8734 26.6667 24.3934L28.56 22.5107C29.84 21.2401 29.48 19.0601 27.8427 18.1707L25.296 16.7854C24.2214 16.2027 22.9147 16.3734 22.0747 17.2081Z" fill="black"/>
</svg>
