<svg width="32" height="32" viewBox="0 0 32 32" fill="none" xmlns="http://www.w3.org/2000/svg">
<path d="M29.3334 10.0466V22.6666C29.3334 23.6869 28.9436 24.6686 28.2436 25.411C27.5437 26.1533 26.5865 26.6001 25.568 26.66L25.3334 26.6666H6.66669C5.64641 26.6667 4.66467 26.2769 3.92234 25.5769C3.18001 24.877 2.73321 23.9198 2.67335 22.9013L2.66669 22.6666V10.0466L15.26 18.4426L15.4147 18.5306C15.597 18.6197 15.7972 18.666 16 18.666C16.2029 18.666 16.4031 18.6197 16.5854 18.5306L16.74 18.4426L29.3334 10.0466Z" fill="black"/>
<path d="M25.3333 5.33325C26.7733 5.33325 28.036 6.09325 28.74 7.23592L16 15.7293L3.26001 7.23592C3.5944 6.69302 4.05373 6.23792 4.59971 5.90857C5.14568 5.57922 5.76248 5.38517 6.39868 5.34259L6.66668 5.33325H25.3333Z" fill="black"/>
</svg>
